<?xml version="1.0" standalone="no"?>
<!DOCTYPE svg PUBLIC "-//W3C//DTD SVG 20010904//EN"
 "http://www.w3.org/TR/2001/REC-SVG-20010904/DTD/svg10.dtd">
<svg version="1.0" xmlns="http://www.w3.org/2000/svg"
 width="250.000000pt" height="250.000000pt" viewBox="0 0 250.000000 250.000000"
 preserveAspectRatio="xMidYMid meet">
<metadata>
Created by potrace 1.11, written by Peter Selinger 2001-2013
</metadata>
<g transform="translate(0.000000,250.000000) scale(0.100000,-0.100000)"
fill="#000000" stroke="none">
<path d="M1029 2377 l-155 -121 2 -44 c2 -25 6 -48 11 -52 20 -20 294 -230
298 -230 3 0 5 16 5 36 0 27 -7 41 -32 62 -30 26 -144 114 -201 157 -15 11
-27 23 -27 27 0 4 26 27 57 50 32 24 67 50 78 60 11 9 44 35 73 57 47 38 52
45 52 81 0 22 -1 40 -2 39 -2 0 -73 -55 -159 -122z"/>
<path d="M675 2419 c-49 -39 -113 -88 -142 -109 -64 -49 -67 -54 -65 -105 3
-41 7 -46 72 -95 19 -14 47 -36 63 -49 16 -14 61 -49 101 -77 l71 -53 3 37 c3
27 -2 41 -16 52 -42 33 -74 58 -156 120 -47 36 -86 68 -86 71 0 6 173 144 231
184 23 16 29 28 29 58 0 20 -3 37 -7 37 -5 0 -48 -32 -98 -71z"/>
<path d="M1274 2455 c5 -44 -1 -38 148 -153 l117 -90 -76 -58 c-180 -139 -189
-148 -189 -188 0 -20 2 -36 4 -36 3 0 124 93 192 147 8 6 38 30 67 52 50 39
51 42 49 87 -2 30 -8 49 -19 55 -9 5 -22 15 -29 22 -25 24 -239 188 -253 193
-11 5 -13 -3 -11 -31z"/>
<path d="M1724 2454 c0 -35 6 -41 133 -138 l132 -101 -22 -18 c-12 -10 -31
-26 -42 -35 -11 -9 -38 -30 -60 -46 -22 -17 -42 -32 -45 -36 -4 -4 -67 -51
-88 -65 -6 -5 -10 -85 -4 -85 4 1 75 54 157 118 148 116 150 118 151 159 1 22
-1 45 -5 50 -8 13 -292 233 -300 233 -4 0 -7 -16 -7 -36z"/>
<path d="M462 1208 l0 -923 157 -142 c86 -78 158 -139 160 -137 5 5 5 1884 0
1888 -2 1 -44 34 -94 71 -49 38 -118 90 -151 117 -34 26 -64 48 -67 48 -3 0
-5 -415 -5 -922z"/>
<path d="M870 1205 c0 -773 2 -925 14 -932 7 -4 62 -54 122 -110 134 -125 178
-163 182 -159 2 2 3 425 4 940 0 686 -3 940 -11 950 -7 8 -55 47 -109 87 -53
41 -99 76 -102 79 -14 14 -90 70 -94 70 -3 0 -6 -416 -6 -925z"/>
<path d="M1423 2008 l-153 -120 0 -944 c0 -519 2 -944 4 -944 3 0 11 6 18 12
42 40 238 219 266 243 l32 28 0 924 c0 507 -3 923 -7 922 -5 0 -77 -55 -160
-121z"/>
<path d="M1965 2078 c-62 -48 -97 -74 -212 -166 l-32 -25 0 -944 c-1 -893 0
-944 17 -932 20 16 14 11 133 120 52 47 111 101 132 120 l37 34 -2 923 -3 923
-70 -53z"/>
</g>
</svg>
